PathFileType	4	(X/Y/Z)	C:\Users\Basilio\Documents\Thesis Gigler\squatting_fais\c3dfiles\038\SLS_back_pre3\markers_experimental.trc
DataRate	CameraRate	NumFrames	NumMarkers	Units	OrigDataRate	OrigDataStartFrame	OrigNumFrames
200.000000	200.000000	4	63	mm	200.000000	1408	1878
Frame#	Time	FHD			LBHD			RBHD			C7			T10			CLAV			LSHO			LUUPA			LMUPA			LDUPA			LLEP			LMEP			LRAD			LUL			LRFIN			RSHO			RUPA1			RMUPA			RDUPA			RLEP			RMEP			RRAD			RUL			RUFIN			LASI			RASI			USACR			LSACR			RSACR			LTHI1			LTHI2			LTHI3			LTHI4			LLFC			LMFC			LTIB1			LTIB2			LTIB3			LTIB4			LLMAL			LMMAL			LHEE			LMT1			LMT2			LMT5			RTHI			RTHI2			RTHI3			RTHI4			RLFC			RMFC			RTIB1			RTIB2			RTIB3			RTIB4			RLMAL			RMMAL			RHEE			RMT1			RMT2			RMT5			*61			*62			
		X1	Y1	Z1	X2	Y2	Z2	X3	Y3	Z3	X4	Y4	Z4	X5	Y5	Z5	X6	Y6	Z6	X7	Y7	Z7	X8	Y8	Z8	X9	Y9	Z9	X10	Y10	Z10	X11	Y11	Z11	X12	Y12	Z12	X13	Y13	Z13	X14	Y14	Z14	X15	Y15	Z15	X16	Y16	Z16	X17	Y17	Z17	X18	Y18	Z18	X19	Y19	Z19	X20	Y20	Z20	X21	Y21	Z21	X22	Y22	Z22	X23	Y23	Z23	X24	Y24	Z24	X25	Y25	Z25	X26	Y26	Z26	X27	Y27	Z27	X28	Y28	Z28	X29	Y29	Z29	X30	Y30	Z30	X31	Y31	Z31	X32	Y32	Z32	X33	Y33	Z33	X34	Y34	Z34	X35	Y35	Z35	X36	Y36	Z36	X37	Y37	Z37	X38	Y38	Z38	X39	Y39	Z39	X40	Y40	Z40	X41	Y41	Z41	X42	Y42	Z42	X43	Y43	Z43	X44	Y44	Z44	X45	Y45	Z45	X46	Y46	Z46	X47	Y47	Z47	X48	Y48	Z48	X49	Y49	Z49	X50	Y50	Z50	X51	Y51	Z51	X52	Y52	Z52	X53	Y53	Z53	X54	Y54	Z54	X55	Y55	Z55	X56	Y56	Z56	X57	Y57	Z57	X58	Y58	Z58	X59	Y59	Z59	X60	Y60	Z60	X61	Y61	Z61	X62	Y62	Z62	X63	Y63	Z63	

1409	7.04	-173.0365295410157	1763.879150390625	-1064.939697265625	-327.9149169921876	1715.0712890625	-1127.306640625	-321.7468566894532	1701.050170898438	-982.9230957031252	-370.6416015625001	1532.529663085938	-1056.864013671875	-370.1127014160157	1253.2724609375	-1037.256469726563	-226.1123809814454	1515.282104492188	-1064.133178710938	-284.0010070800782	1550.537231445313	-1207.852172851563	-127.6759262084961	1480.549682617188	-1345.028442382813	-97.36977386474612	1512.595092773438	-1319.025390625	-59.09418106079103	1484.513671875	-1356.07470703125	3.583840608596803	1483.746459960938	-1359.83203125	10.73508834838867	1408.297973632813	-1336.689086914063	282.8487548828126	1470.336059570313	-1238.450073242188	297.3800048828126	1480.698120117188	-1308.43798828125	355.9700622558594	1502.184814453125	-1217.362670898438	-276.0455627441407	1547.049560546875	-921.910339355469	-118.8498306274414	1515.186401367188	-805.0167236328127	-83.55255126953126	1522.997680664063	-837.680603027344	-51.11433410644533	1508.726684570313	-788.5737304687502	21.79076385498047	1503.1552734375	-779.237487792969	25.13853454589844	1424.720703125	-795.365173339844	298.0762023925782	1488.194702148438	-861.208923339844	309.0822448730469	1504.106567382813	-793.5208129882815	377.1659545898438	1522.8486328125	-868.3167114257815	-202.4009857177735	1047.986938476563	-1123.942260742188	-228.0210876464844	1081.764282226563	-877.7121582031252	-381.1768188476563	1118.94677734375	-1021.005554199219	-393.8440246582032	1087.876831054688	-1047.05126953125	-396.9480285644532	1092.7490234375	-990.1641845703127	-235.3027496337891	728.3706054687501	-1159.248657226563	-203.5193023681641	649.9956665039064	-1146.729248046875	-158.048828125	657.8813476562501	-1124.334106445313	-230.7003784179688	601.7232055664064	-1125.922485351563	-227.3099670410157	541.6158447265626	-1114.245971679688	-221.5211639404297	542.0563964843751	-996.1279907226565	-225.4135131835938	356.1299133300782	-1027.343139648438	-274.8719177246094	317.9619445800782	-1089.246704101563	-239.8260345458985	308.0887756347657	-1058.597412109375	-270.1062316894532	236.7817382812501	-1024.447143554688	-378.1238403320313	121.8224716186524	-1036.974731445313	-339.2911376953126	134.2639312744141	-964.7104492187502	-432.6468811035157	102.1101989746094	-980.4482421875002	-233.1244659423829	45.57584762573243	-974.3444824218752	-225.2180328369141	44.48702621459962	-1024.996215820313	-270.8277587890626	35.87608337402344	-1071.369750976563	-262.9305419921876	815.5418701171877	-791.7921142578127	-223.7982330322266	762.8079223632814	-777.0128173828127	-190.6116180419922	765.0838012695314	-778.9724731445315	-247.1634368896485	679.7560424804689	-781.033386230469	-238.6113586425782	578.8577880859376	-788.033874511719	-226.1030883789063	562.8319091796876	-902.010681152344	-364.8427734375001	470.0756225585939	-828.8660888671877	-469.7435302734376	520.6692504882814	-820.8086547851565	-450.7108764648439	476.9000549316407	-821.586608886719	-488.5236816406251	448.307342529297	-858.1730957031252	-621.1610107421876	475.5999755859376	-860.2978515625002	-593.0819702148439	439.6614074707032	-930.5366821289065	-638.2423095703126	525.3701782226564	-938.5157470703127	-671.9625854492189	311.4295654296876	-921.2196044921877	-685.6647338867189	316.1233825683594	-876.2211914062502	-717.7846069335939	363.1657409667969	-847.6314086914065	nan	nan	nan	nan	nan	nan	
1410	7.045	-173.6656036376953	1764.651733398438	-1065.093505859375	-328.2062072753907	1715.209106445313	-1127.30810546875	-321.7098999023438	1701.498413085938	-982.7485351562502	-370.7348022460938	1533.1962890625	-1056.942016601563	-370.1972961425782	1253.680786132813	-1037.3232421875	-226.1849517822266	1515.827270507813	-1064.00048828125	-284.1456909179688	1551.115112304688	-1207.88623046875	-127.9013290405274	1481.01611328125	-1344.975830078125	-97.4615173339844	1512.923706054688	-1319.036865234375	-59.23520278930665	1484.960815429688	-1356.148315429688	3.46409821510315	1484.149291992188	-1359.797729492188	10.54389476776123	1408.74560546875	-1336.703735351563	282.7697143554688	1470.65869140625	-1238.47119140625	297.2366027832032	1480.956909179688	-1308.463256835938	355.8728027343751	1502.412109375	-1217.419677734375	-276.1994934082032	1547.502075195313	-921.8004150390627	-119.0096054077149	1515.494750976563	-804.9530029296877	-83.65307617187501	1523.542724609375	-837.5728759765627	-51.22440338134767	1509.197875976563	-788.6401367187502	21.78515815734864	1503.514526367188	-779.1728515625002	25.02370834350587	1425.178100585938	-795.3640747070315	298.0418701171876	1488.90185546875	-861.3033447265627	308.9871215820313	1504.493286132813	-793.4124145507815	377.2121887207032	1523.747802734375	-868.632019042969	-202.2766418457032	1048.411499023438	-1123.848876953125	-227.7670288085938	1082.262817382813	-877.757751464844	-380.9370727539063	1119.40771484375	-1021.1201171875	-393.5138549804689	1088.312622070313	-1047.112060546875	-396.6820068359376	1093.178344726563	-990.1739501953127	-235.7140502929688	728.8930053710939	-1159.01416015625	-203.9635314941407	650.5139160156251	-1146.39990234375	-158.593246459961	658.1580810546876	-1123.918823242188	-231.5194702148438	602.2794189453126	-1125.505493164063	-228.2111511230469	542.1101074218751	-1113.837768554688	-221.873031616211	542.4500122070314	-995.9831542968752	-226.2313995361329	356.4761352539063	-1026.863647460938	-275.6881408691407	317.8725585937501	-1089.039672851563	-240.2813415527344	308.3414306640626	-1058.466796875	-270.2806701660157	237.2273864746094	-1024.212646484375	-378.6852111816407	121.4212493896485	-1037.096435546875	-339.3282165527344	134.2522583007813	-964.5780029296877	-432.6493530273439	102.1060409545899	-980.4461669921877	-233.1516265869141	45.52331924438477	-974.3272705078127	-225.1992950439454	44.49059295654298	-1024.965576171875	-270.4712219238282	35.65472793579102	-1071.27978515625	-262.5312194824219	816.0253906250002	-791.8623657226565	-223.5428161621094	763.2780151367189	-776.9417114257815	-190.295166015625	765.5914306640626	-778.9664306640627	-246.8367767333985	680.3681030273439	-781.0266723632815	-238.1969909667969	579.5314941406251	-787.8684692382815	-225.9229431152344	563.3504028320314	-902.0228271484377	-364.5963134765626	470.5562133789064	-828.813415527344	-469.5535888671876	521.1878051757814	-820.5396728515627	-450.4681396484376	477.3979797363282	-821.4116210937502	-488.309295654297	448.934539794922	-857.9531250000002	-620.9787597656251	476.1058349609376	-859.9455566406252	-593.0205078125001	440.0784606933595	-930.2072753906252	-637.7344360351564	525.9146118164064	-937.845153808594	-671.9192504882814	311.9485778808594	-920.777038574219	-685.5087280273439	316.5717163085938	-875.5481567382815	-717.6229858398439	363.4637145996094	-847.1043701171877	nan	nan	nan	nan	nan	nan	
1411	7.05	-173.8324127197266	1764.794921875	-1064.838623046875	-328.3940734863282	1715.814819335938	-1127.23046875	-321.7842102050782	1701.973876953125	-982.7337036132815	-370.8771057128907	1533.697509765625	-1056.8935546875	-370.0133056640626	1254.158447265625	-1037.318725585938	-226.3141326904297	1516.394653320313	-1063.99365234375	-284.2767028808594	1551.65380859375	-1207.8583984375	-128.0478210449219	1481.403564453125	-1344.94775390625	-97.51338195800784	1513.239624023438	-1319.011840820313	-59.3077964782715	1485.426391601563	-1356.206420898438	3.315456151962281	1484.61474609375	-1359.7978515625	10.31778049468994	1409.315307617188	-1336.719848632813	282.6637268066407	1470.766845703125	-1238.534545898438	297.2068786621094	1481.251098632813	-1308.503540039063	355.7495422363282	1502.662719726563	-1217.501708984375	-276.3335266113282	1548.008911132813	-921.706970214844	-119.1049499511719	1515.90283203125	-804.8978271484377	-83.7698211669922	1523.889770507813	-837.5507812500002	-51.26627349853517	1509.515502929688	-788.6134033203127	21.77795028686524	1503.9501953125	-779.1180419921877	24.66770935058594	1425.24169921875	-795.4939575195315	297.9515991210938	1489.350219726563	-861.3146972656252	308.9090270996094	1504.756713867188	-793.4952392578127	376.9916687011719	1523.7763671875	-868.6108398437502	-201.9966583251954	1048.987670898438	-1123.82763671875	-227.6491241455079	1082.67578125	-877.7988891601565	-380.5574645996094	1119.806640625	-1021.058837890625	-393.4798583984376	1088.755859375	-1047.191772460938	-396.4007568359376	1093.735961914063	-990.2470703125002	-236.0933532714844	729.3234252929689	-1158.71435546875	-204.6390380859376	650.8981323242189	-1146.029052734375	-159.709213256836	658.8560180664064	-1123.628295898438	-232.3105468750001	602.7800903320314	-1125.19921875	-229.2618713378907	542.2936401367189	-1113.476318359375	-223.1742706298829	542.9351806640626	-995.5122070312502	-226.8674011230469	356.8226318359376	-1026.635620117188	-276.1413879394532	318.0991821289063	-1088.718017578125	-240.8270263671876	308.8451538085938	-1058.344482421875	-270.6117248535157	236.6500396728516	-1024.585083007813	-378.7597656250001	121.4236526489258	-1037.04052734375	-339.4054870605469	134.2266540527344	-964.566833496094	-432.6467590332032	102.1089706420899	-980.446960449219	-233.1975708007813	45.56384658813477	-974.3420410156252	-225.2435913085938	44.54435729980469	-1024.994506835938	-270.8400878906251	35.93050384521485	-1071.295654296875	-262.2110900878907	816.5766601562502	-791.960632324219	-223.2643280029297	763.8056640625001	-776.9326782226565	-189.9539794921875	766.1176757812501	-779.0341796875002	-246.5763549804688	680.9279785156251	-781.1246337890627	-238.1187438964844	579.7427978515626	-787.8886718750002	-225.8300933837891	563.8031005859376	-902.1151123046877	-364.4901733398438	471.0035095214845	-828.686218261719	-469.138641357422	521.7399902343751	-820.224304199219	-450.3868713378907	478.1373901367189	-821.2603149414065	-488.0926208496095	449.8455200195314	-857.8616333007815	-620.8464965820314	476.7275695800782	-859.6324462890627	-592.8883666992189	440.4633178710939	-929.891296386719	-637.8677978515626	526.3335571289064	-937.5603027343752	-671.7768554687501	312.4896240234376	-920.3603515625002	-685.2875366210939	316.9713439941407	-875.1899414062502	-717.1612548828126	364.1902160644532	-846.325378417969	nan	nan	nan	nan	nan	nan	
1412	7.055	-173.1147613525391	1765.168701171875	-1064.783081054688	-328.3077087402344	1716.720336914063	-1127.092041015625	-321.9950561523438	1702.793579101563	-982.7820434570315	-370.9511413574219	1534.088012695313	-1056.831298828125	-369.6542968750001	1254.704345703125	-1037.306274414063	-226.3240814208985	1516.878662109375	-1064.035278320313	-284.3476562500001	1552.146484375	-1207.857666015625	-128.2285614013672	1481.823852539063	-1344.874389648438	-97.62103271484378	1513.617553710938	-1319.0830078125	-59.58699798583986	1485.737670898438	-1356.145385742188	3.178337574005128	1484.90234375	-1359.829223632813	10.11553859710694	1409.718017578125	-1336.649169921875	282.4148254394532	1471.011108398438	-1238.547241210938	297.0455627441407	1481.432861328125	-1308.544921875	355.6614379882813	1502.900756835938	-1217.549560546875	-276.4734191894532	1548.490600585938	-921.651550292969	-119.2178344726563	1516.56982421875	-804.8854980468752	-83.96569061279298	1524.228149414063	-837.5203247070315	-51.49436569213869	1509.805908203125	-788.499938964844	21.71567344665528	1504.31591796875	-779.0056762695315	24.5052719116211	1425.68310546875	-795.509460449219	297.9328918457032	1489.68408203125	-861.3386840820315	308.7887268066407	1505.17333984375	-793.5110473632815	376.8180541992188	1524.47119140625	-868.649841308594	-201.5859985351563	1049.708251953125	-1123.919067382813	-227.3957061767579	1083.225463867188	-877.8318481445315	-380.2971496582032	1120.189697265625	-1021.056701660156	-392.7558593750001	1089.263549804688	-1046.996215820313	-395.9591674804689	1094.198974609375	-990.326599121094	-236.3689117431641	729.7581787109376	-1158.4423828125	-205.3457641601563	651.2047119140626	-1145.789794921875	-159.9479675292969	658.7753906250001	-1122.978393554688	-232.6206207275391	603.0538940429689	-1124.868530273438	-230.0636291503907	542.7203979492189	-1113.111083984375	-224.3542633056641	543.2760620117189	-994.949157714844	-227.4185791015626	357.1368713378907	-1026.403076171875	-276.7718200683594	318.4580993652344	-1088.5322265625	-241.3647155761719	309.6817626953126	-1058.097290039063	-270.7677612304688	237.591293334961	-1023.751831054688	-378.2378540039063	121.8268814086914	-1036.849975585938	-339.4911499023438	134.2244110107422	-964.5041503906252	-432.6604309082032	102.0856399536133	-980.447448730469	-233.2327270507813	45.60052871704102	-974.313171386719	-225.1716613769532	44.58423233032227	-1024.957885742188	-270.7988586425782	35.93760299682618	-1071.26416015625	-261.9821166992188	817.0220336914065	-792.008483886719	-222.6033172607422	763.8198852539064	-777.1861572265627	-189.7128143310547	766.5934448242189	-779.1843261718752	-246.309066772461	681.3681030273439	-781.2053222656252	-237.8888244628907	580.2609252929689	-787.8920898437502	-225.5379791259766	564.2587280273439	-902.1817016601565	-364.3308105468751	471.3862304687501	-828.5299072265627	-468.9531555175782	522.2424316406251	-820.1192626953127	-450.1145935058595	478.600799560547	-821.023864746094	-487.9288635253907	450.1875915527345	-857.7685546875002	-620.6121826171876	477.108367919922	-859.2915039062502	-592.8255615234376	440.7662048339845	-929.5878906250002	-637.7271728515626	526.7124633789064	-937.2502441406252	-671.6431884765626	312.7585144042969	-919.8647460937502	-685.2033691406251	317.2269592285157	-874.705017089844	-716.8909912109376	364.6854248046876	-845.8337402343752	nan	nan	nan	nan	nan	nan	
